# xmcd CD database file
#
# Track frame offsets:
#	150
#	20148
#	53082
#	80980
#	107463
#	127752
#	154132
#	175387
#
# Disc length: 2804 seconds
#
# Revision: 0
# Processed by: cddbd v1.5.2PL0 Copyright (c) Steve Scherf et al.
# Submitted via: CDex 1.51
#
DISCID=620af208
DTITLE=Guylain Deppe - Skip soul
DYEAR=1999
DGENRE=Jazz
TTITLE0=I hate chocolate
TTITLE1=Someday my prince will come
TTITLE2=Automn leaves
TTITLE3=La ballade irlandaise
TTITLE4=Skip soul
TTITLE5=One for Sarah
TTITLE6=Another for my wife
TTITLE7=Golden street
EXTD=YEAR: 1999
EXTT0=
EXTT1=
EXTT2=
EXTT3=
EXTT4=
EXTT5=
EXTT6=
EXTT7=
PLAYORDER=
